<?xml version="1.0" standalone="no"?>
<!DOCTYPE svg PUBLIC "-//W3C//DTD SVG 20010904//EN"
 "http://www.w3.org/TR/2001/REC-SVG-20010904/DTD/svg10.dtd">
<svg version="1.0" xmlns="http://www.w3.org/2000/svg"
 width="512.000000pt" height="512.000000pt" viewBox="0 0 512.000000 512.000000"
 preserveAspectRatio="xMidYMid meet">
<metadata>
Created by potrace 1.11, written by Peter Selinger 2001-2013
</metadata>
<g transform="translate(0.000000,512.000000) scale(0.100000,-0.100000)"
fill="#000000" stroke="none">
<path d="M1388 5113 c668 -2 1757 -2 2420 0 664 1 118 2 -1213 2 -1331 0
-1874 -1 -1207 -2z"/>
<path d="M2953 4569 c-9 -9 -9 -18 1 -38 14 -28 46 -132 46 -150 0 -17 -24
-13 -79 14 -153 77 -461 125 -626 96 -152 -26 -209 -44 -234 -73 -18 -22 -21
-32 -12 -41 20 -20 12 -32 -31 -43 -105 -27 -294 -113 -526 -238 -57 -31 -127
-63 -155 -72 -78 -24 -97 -32 -97 -45 0 -19 77 -88 116 -104 l36 -15 -80 -78
c-124 -121 -207 -264 -255 -437 -43 -156 -47 -182 -47 -323 0 -181 25 -263 67
-221 8 8 13 -4 18 -47 3 -33 10 -77 15 -99 5 -22 14 -65 20 -95 5 -30 13 -66
16 -80 5 -22 1 -27 -30 -38 -50 -18 -100 -82 -120 -151 -49 -174 15 -490 132
-651 121 -168 155 -199 234 -215 22 -4 28 -12 33 -43 14 -88 63 -248 93 -301
53 -96 84 -144 124 -198 80 -104 77 -91 30 -130 -64 -53 -77 -90 -77 -213 0
-58 4 -121 8 -141 l9 -36 -74 -11 c-196 -29 -270 -49 -346 -96 -54 -33 -84
-63 -125 -129 -17 -27 -47 -103 -47 -119 0 -5 312 -8 693 -8 380 0 687 4 680
8 -7 4 -19 39 -27 78 -19 89 -50 172 -81 219 -30 43 -29 40 -8 64 11 14 21 17
32 11 9 -4 46 -15 82 -24 87 -22 398 -19 474 5 28 9 56 18 64 20 8 2 17 -7 22
-24 5 -21 1 -38 -17 -71 -30 -55 -62 -151 -71 -213 -3 -27 -10 -54 -16 -60 -7
-10 130 -13 681 -13 l691 0 -14 32 c-60 141 -103 191 -210 244 -65 32 -159 55
-347 83 -26 4 -51 10 -54 14 -4 3 -1 26 6 50 30 109 9 232 -51 300 -21 25 -39
48 -39 52 0 4 20 29 44 56 74 83 186 271 202 341 3 13 8 34 11 48 3 14 9 30
13 35 4 6 11 30 16 55 4 25 8 47 9 50 1 3 5 17 9 33 6 18 17 29 35 32 40 9
102 44 126 74 71 85 158 210 171 245 69 188 84 262 80 396 -3 117 -23 193 -62
239 -32 38 -81 69 -119 74 -28 4 -30 7 -28 43 3 79 16 154 24 148 5 -3 9 -14
9 -25 0 -13 6 -19 16 -17 19 4 52 99 93 271 33 141 -11 404 -94 561 -30 57
-31 66 -5 59 24 -6 24 -1 5 64 -37 124 -74 184 -174 284 -77 77 -111 103 -173
132 -42 21 -79 45 -82 55 -2 9 -7 33 -11 52 -10 52 -36 120 -63 164 -23 37
-25 39 -38 21 -8 -10 -14 -27 -14 -37 0 -35 -26 -17 -55 39 -59 112 -199 229
-339 284 -77 31 -115 36 -133 18z m-298 -299 c16 -6 -138 -21 -250 -25 -79 -3
-349 -48 -433 -71 -79 -23 -97 -13 -32 18 95 45 256 80 420 92 64 4 271 -6
295 -14z m65 -95 c32 -12 20 -14 -124 -14 -88 -1 -157 1 -155 4 25 24 224 31
279 10z m168 -97 c51 -8 72 -15 72 -25 0 -11 -8 -13 -32 -8 -18 4 -110 7 -205
7 -95 -1 -173 3 -173 7 0 13 170 39 220 34 25 -2 78 -9 118 -15z m29 -87 c67
-10 114 -29 121 -48 2 -8 -6 -13 -21 -13 -32 0 -129 -21 -140 -30 -5 -4 20
-13 54 -19 69 -14 109 -30 109 -44 0 -5 -8 -6 -17 -1 -10 4 -103 9 -207 11
-104 2 -192 5 -194 8 -8 7 104 53 162 66 31 7 56 15 56 19 0 15 -77 19 -175
10 -134 -12 -161 -12 -149 0 10 10 96 35 149 43 56 8 190 7 252 -2z m-1123
-141 c-22 -16 -56 -42 -77 -57 -83 -62 -266 -237 -275 -263 -4 -12 -22 -13
-22 -2 0 30 146 196 225 257 45 35 154 94 174 95 8 0 -4 -13 -25 -30z m466
-69 c0 -12 -145 -53 -177 -49 -21 2 -5 10 62 30 100 29 115 32 115 19z m1064
-9 c3 -4 -10 -16 -28 -26 -17 -9 -44 -31 -58 -49 -108 -133 -136 -162 -176
-188 -63 -40 -72 -36 -26 10 22 21 56 72 78 112 45 86 70 116 111 134 34 15
91 19 99 7z m365 -82 c33 -31 61 -65 61 -74 0 -22 -4 -20 -37 10 -15 14 -56
44 -90 66 -60 39 -69 48 -58 60 16 16 69 -10 124 -62z m-1239 24 c-159 -70
-270 -139 -357 -222 -36 -35 -49 -36 -39 -5 13 40 98 117 191 173 43 26 175
69 215 69 22 1 21 -1 -10 -15z m1123 -83 c41 -39 79 -110 97 -183 19 -73 8
-74 -37 -6 -42 64 -79 105 -88 96 -3 -2 -1 -18 4 -36 5 -17 12 -62 16 -99 5
-63 5 -66 -9 -43 -13 23 -45 123 -81 250 -15 54 -5 73 34 64 14 -4 43 -23 64
-43z m-2033 -46 c0 -3 -29 -47 -64 -98 -75 -108 -127 -208 -152 -292 -10 -33
-24 -69 -32 -80 -13 -19 -13 -19 -8 5 3 14 7 45 11 70 9 72 43 164 84 227 58
89 161 197 161 168z m55 -200 c-18 -55 -42 -138 -53 -185 -19 -84 -20 -85 -21
-35 -1 67 25 188 55 255 21 47 43 75 51 67 1 -2 -13 -48 -32 -102z m1718 -148
c19 -34 45 -92 57 -129 31 -93 56 -90 86 12 8 28 17 50 19 48 1 -1 21 -66 44
-143 69 -237 81 -264 164 -397 57 -90 82 -171 89 -283 l3 -50 -39 0 c-36 0
-40 3 -48 32 -36 137 -209 298 -359 332 -57 13 -182 13 -239 0 -67 -15 -266
-118 -278 -143 -17 -34 -80 -179 -92 -210 -8 -21 -15 -26 -28 -21 -34 13 -108
17 -159 7 -58 -10 -67 -7 -77 26 -4 12 -28 66 -53 118 -34 72 -53 100 -75 113
-17 9 -53 30 -82 46 -156 92 -338 105 -490 36 -108 -49 -237 -190 -268 -293
-6 -21 -17 -39 -25 -39 -49 -5 -48 -7 -51 58 -3 71 21 155 88 296 l42 89 22
-21 c12 -12 27 -21 34 -21 6 0 25 46 42 103 17 56 42 132 56 169 25 65 103
189 139 218 17 14 18 13 11 -10 -15 -49 -19 -117 -7 -124 7 -4 42 21 84 59 97
90 219 151 351 174 73 13 76 13 76 1 0 -17 -101 -109 -158 -143 -55 -34 -60
-47 -21 -58 47 -13 210 -9 277 7 92 22 257 103 315 155 l49 42 56 -23 c104
-44 220 -37 332 19 35 17 59 24 67 18 7 -5 28 -37 46 -70z m-2114 -910 c17
-45 12 -52 -23 -36 -42 20 -39 5 9 -47 26 -28 44 -55 41 -64 -2 -8 -14 -41
-25 -72 -24 -64 -26 -116 -7 -168 13 -34 13 -33 18 47 6 79 23 137 42 138 15
0 43 -129 63 -292 18 -144 18 -153 2 -153 -10 0 -25 7 -33 16 -9 8 -16 11 -16
5 0 -12 49 -51 65 -51 14 0 20 -18 30 -92 6 -42 5 -48 -10 -48 -39 0 -181 182
-226 290 -69 166 -89 414 -41 507 39 74 87 83 111 20z m2868 10 c61 -69 68
-227 19 -420 -31 -120 -57 -172 -145 -292 -68 -92 -94 -115 -125 -115 -12 0
-14 7 -10 33 15 84 24 102 56 117 18 8 34 21 36 27 3 9 -4 9 -24 -2 -16 -8
-29 -13 -30 -12 -2 2 10 99 26 222 14 105 41 225 50 225 26 0 56 -111 46 -172
-6 -35 -5 -39 7 -29 29 24 30 104 1 190 l-27 81 37 45 c21 25 42 45 47 45 5 0
9 5 9 10 0 18 -28 11 -58 -15 -17 -14 -33 -25 -37 -25 -4 0 -4 19 0 43 12 75
13 77 55 77 31 0 44 -6 67 -33z m-1802 -128 c52 -58 47 -74 -32 -111 -104 -47
-196 -68 -298 -67 -98 0 -147 15 -205 61 l-34 27 24 27 c22 24 123 94 135 94
3 0 5 -19 5 -42 0 -85 81 -154 172 -146 86 9 148 75 148 158 0 45 1 47 25 42
14 -2 41 -22 60 -43z m885 47 c0 -11 -19 -15 -25 -6 -3 5 1 10 9 10 9 0 16 -2
16 -4z m-1563 -53 c-3 -10 -5 -2 -5 17 0 19 2 27 5 18 2 -10 2 -26 0 -35z
m1405 20 c-7 -37 26 -110 63 -139 102 -78 264 -7 267 117 1 16 4 29 8 29 13 0
96 -58 119 -84 l24 -26 -23 -25 c-38 -41 -124 -68 -210 -68 -77 0 -212 30
-265 57 -17 9 -34 16 -40 16 -5 1 -23 11 -39 25 -29 23 -29 24 -11 52 26 42
62 71 88 71 20 0 23 -5 19 -25z m519 -6 c-10 -9 -11 -8 -5 6 3 10 9 15 12 12
3 -3 0 -11 -7 -18z m39 13 c0 -5 -2 -10 -4 -10 -3 0 -8 5 -11 10 -3 6 -1 10 4
10 6 0 11 -4 11 -10z m40 -22 c0 -7 -11 -23 -24 -35 l-24 -23 -6 23 c-9 34 -7
42 6 29 16 -16 28 -15 28 3 0 8 5 15 10 15 6 0 10 -6 10 -12z m-1954 -11 c10
14 13 15 14 3 0 -25 -17 -43 -34 -37 -9 4 -16 17 -16 29 1 21 2 21 11 5 10
-18 11 -18 25 0z m1028 -21 c31 -13 33 -17 40 -79 3 -36 13 -85 22 -109 8 -24
19 -89 23 -146 9 -122 31 -164 31 -59 0 37 4 67 9 67 5 0 25 -20 45 -44 108
-132 327 -199 502 -152 119 32 250 129 310 231 35 60 61 143 69 219 7 64 8 66
35 66 25 0 28 -3 34 -52 9 -80 7 -162 -9 -283 -24 -184 -42 -254 -94 -361 -60
-124 -141 -221 -141 -169 0 26 -14 16 -44 -31 -32 -51 -72 -76 -86 -54 -6 10
-12 6 -23 -16 -8 -16 -24 -37 -36 -48 -20 -18 -20 -18 -46 40 -30 67 -46 88
-96 120 -75 47 -179 49 -576 9 -28 -3 -95 -1 -150 4 -323 31 -379 33 -434 22
-90 -19 -139 -56 -183 -140 -21 -40 -43 -70 -49 -68 -7 2 -25 23 -40 46 -22
32 -32 39 -42 31 -19 -16 -37 -4 -80 56 -37 51 -40 54 -46 32 -5 -23 -6 -23
-38 11 -105 111 -187 444 -179 726 l3 120 33 3 c32 3 32 3 32 -40 0 -108 58
-240 144 -330 90 -95 192 -144 322 -155 268 -22 507 173 546 444 11 75 15 84
38 92 38 14 117 13 154 -3z m-1056 -18 c7 -7 12 -22 12 -34 0 -15 15 -34 43
-56 90 -71 152 -91 277 -92 118 -1 204 20 324 80 49 24 92 42 95 39 3 -3 -1
-27 -8 -53 -44 -168 -217 -302 -388 -302 -46 0 -131 24 -185 51 -45 23 -119
95 -152 148 -63 99 -78 279 -18 219z m2000 -53 c-3 -36 -10 -71 -15 -78 -6 -6
-13 -25 -17 -41 -17 -71 -108 -166 -206 -214 -49 -24 -66 -27 -160 -27 -95 0
-110 3 -159 28 -78 40 -129 84 -167 143 -37 58 -64 128 -62 160 2 19 5 20 28
11 14 -6 41 -21 60 -33 56 -34 190 -73 276 -80 129 -10 257 25 328 91 15 14
32 25 38 25 5 0 7 7 4 16 -9 25 3 56 20 50 8 -3 14 -1 14 4 0 6 5 10 11 10 8
0 10 -20 7 -65z m-1332 -920 c196 -34 393 -35 579 -5 203 33 225 34 265 13 46
-24 72 -75 67 -131 -9 -89 -131 -215 -240 -247 -102 -30 -228 -9 -257 44 -10
19 -20 21 -106 21 -90 0 -97 -2 -115 -24 -31 -40 -98 -60 -178 -53 -85 7 -141
33 -215 98 -69 62 -100 117 -99 180 1 55 22 91 66 113 43 21 58 20 233 -9z"/>
<path d="M2306 1598 c-9 -13 -16 -42 -16 -68 0 -36 5 -52 25 -70 21 -20 31
-22 76 -17 52 6 52 6 95 -40 40 -45 45 -47 97 -47 52 -1 57 2 106 47 45 42 56
48 79 41 46 -13 76 -7 99 21 27 31 31 90 7 123 -25 35 -34 25 -18 -20 16 -45
13 -67 -14 -91 -14 -13 -25 -14 -59 -6 -49 13 -90 -4 -125 -51 -19 -26 -28
-30 -70 -30 -40 0 -50 4 -64 25 -9 13 -32 34 -50 46 -30 18 -40 20 -76 11 -72
-19 -103 21 -78 99 16 46 9 60 -14 27z"/>
<path d="M2063 1178 c-28 -13 -39 -44 -23 -63 7 -9 30 -15 52 -15 22 0 63 -6
91 -14 121 -33 205 -41 407 -41 176 1 221 4 315 24 61 13 135 26 165 30 48 5
55 9 58 29 4 24 -22 62 -41 62 -6 0 -20 -9 -32 -20 -15 -14 -63 -30 -141 -47
-107 -24 -139 -27 -324 -27 -169 0 -223 4 -310 21 -108 22 -140 32 -175 57
-15 10 -26 11 -42 4z"/>
</g>
</svg>
